<svg width="399" height="133" viewBox="0 0 399 133" fill="none" xmlns="http://www.w3.org/2000/svg">
<g filter="url(#filter0_d_1194_4098)">
<mask id="path-1-outside-1_1194_4098" maskUnits="userSpaceOnUse" x="3" y="-1" width="393" height="127" fill="black">
<rect fill="white" x="3" y="-1" width="393" height="127"/>
<path d="M6.91999 53V0.733511H13.1563L24.2333 32.0934L23.669 17.8389V0.733511H30.826V53H25.1836L13.8097 20.5413L14.2551 34.2613V53H6.91999ZM38.8738 53V0.733511H46.8326V53H38.8738ZM57.5828 53V7.62318H51.4653V0.733511H71.3919V7.62318H65.5119V53H57.5828ZM86.8046 53V0.733511H96.6936L104.118 38.9237L111.097 0.733511H121.045V53H113.947V33.5189L114.244 15.6413L107.206 52.7624H100.881L93.5458 15.6413L93.8427 33.5189V53H86.8046ZM128.915 53V0.733511H146.436V7.59349H136.873V22.7983H145.961V29.5098H136.873V46.14H146.792V53H128.915ZM162.502 53.5345C159.354 53.5345 156.82 52.2972 154.899 49.8224C152.979 47.3279 152.019 43.2891 152.019 37.7061V14.988C152.019 12.6519 152.237 10.5632 152.672 8.72197C153.128 6.88076 153.82 5.32663 154.751 4.05956C155.701 2.7727 156.929 1.8026 158.433 1.14927C159.938 0.476138 161.75 0.139574 163.868 0.139574C166.164 0.139574 168.035 0.486037 169.481 1.17896C170.926 1.85209 172.035 2.84199 172.807 4.14865C173.599 5.43552 174.143 7.01935 174.44 8.90015C174.737 10.781 174.885 12.9092 174.885 15.285V18.9971H167.461V13.5329C167.461 11.1769 167.214 9.50399 166.719 8.51409C166.244 7.5242 165.333 7.02925 163.987 7.02925C162.502 7.02925 161.472 7.61329 160.898 8.78136C160.324 9.92964 160.037 11.9787 160.037 14.9286V37.5873C160.037 40.8738 160.275 43.2297 160.75 44.6552C161.245 46.0608 162.264 46.7637 163.809 46.7637C165.313 46.7637 166.372 46.041 166.986 44.5958C167.62 43.1307 167.936 40.6956 167.936 37.2904V30.2522H163.927V24.4613H174.885V53H171.322L170.104 47.8624C169.669 49.6641 168.738 51.0598 167.313 52.0497C165.907 53.0396 164.303 53.5345 162.502 53.5345ZM182.369 53V0.733511H190.328V21.8777H197.455V0.733511H205.414V53H197.455V28.708H190.328V53H182.369ZM210.165 53L217.619 0.733511H228.132L236.061 53H228.637L227.39 43.6752H218.956L217.827 53H210.165ZM219.728 37.2904H226.558L223.054 11.0383H222.935L219.728 37.2904ZM240.813 53V0.733511H248.771V46.2291H258.839V53H240.813ZM260.056 53L267.51 0.733511H278.023L285.952 53H278.528L277.28 43.6752H268.846L267.718 53H260.056ZM269.618 37.2904H276.449L272.945 11.0383H272.826L269.618 37.2904ZM294.861 53V32.1231L286.1 0.733511H293.703L298.87 20.2741H298.989L303.592 0.733511H311.164L302.82 32.1231V53H294.861ZM311.313 53L318.767 0.733511H329.28L337.209 53H329.784L328.537 43.6752H320.103L318.975 53H311.313ZM320.875 37.2904H327.706L324.201 11.0383H324.083L320.875 37.2904ZM10.7509 124L4.36606 71.7335H11.4933L15.3242 108.973L20.1945 71.7335H26.609L31.509 108.973L34.8944 71.7335H42.0514L36.0526 124H28.1236L23.4908 89.2547L18.6799 124H10.7509ZM47.3077 124V71.7335H64.8289V78.5935H55.2665V93.7983H64.3537V100.51H55.2665V117.14H65.1852V124H47.3077ZM71.0652 124V71.7335H79.024V117.229H89.0912V124H71.0652ZM103.524 124.594C100.99 124.594 98.8813 124.01 97.1985 122.842C95.5156 121.674 94.2486 119.971 93.3973 117.734C92.5658 115.477 92.15 112.755 92.15 109.567V86.7898C92.15 84.3943 92.348 82.2363 92.7439 80.3159C93.1399 78.3955 93.7833 76.7523 94.6742 75.3862C95.5651 74.0202 96.753 72.9709 98.2379 72.2384C99.7227 71.5058 101.554 71.1396 103.732 71.1396C105.712 71.1396 107.394 71.4662 108.78 72.1196C110.186 72.7531 111.324 73.6737 112.195 74.8814C113.086 76.0891 113.73 77.5541 114.126 79.2765C114.541 80.9791 114.749 82.8995 114.749 85.0377V92.2244H107.058V85.5426C107.058 82.9688 106.84 81.0781 106.404 79.8705C105.969 78.643 105.098 78.0292 103.791 78.0292C102.346 78.0292 101.376 78.6925 100.881 80.0189C100.406 81.3256 100.168 83.1569 100.168 85.5129V109.924C100.168 111.745 100.267 113.24 100.465 114.408C100.683 115.556 101.039 116.408 101.534 116.962C102.029 117.496 102.722 117.764 103.613 117.764C104.959 117.764 105.87 117.13 106.345 115.863C106.82 114.596 107.058 112.587 107.058 109.835V102.351H114.868V109.746C114.868 113.052 114.482 115.814 113.71 118.031C112.938 120.228 111.71 121.872 110.028 122.961C108.364 124.049 106.197 124.594 103.524 124.594ZM132.597 124.594C129.885 124.594 127.667 124.02 125.945 122.872C124.242 121.723 122.985 120.021 122.174 117.764C121.362 115.507 120.956 112.715 120.956 109.389V85.4832C120.956 82.4739 121.352 79.9001 122.144 77.762C122.936 75.6238 124.193 73.9806 125.915 72.8323C127.638 71.684 129.895 71.1099 132.686 71.1099C134.785 71.1099 136.557 71.4365 138.002 72.0899C139.447 72.7432 140.615 73.6935 141.506 74.9408C142.397 76.1682 143.041 77.6729 143.436 79.4547C143.852 81.2167 144.06 83.2262 144.06 85.4832V109.389C144.06 112.715 143.664 115.507 142.872 117.764C142.1 120.021 140.873 121.723 139.19 122.872C137.507 124.02 135.309 124.594 132.597 124.594ZM132.597 117.704C133.587 117.704 134.329 117.407 134.824 116.813C135.319 116.219 135.646 115.319 135.804 114.111C135.983 112.883 136.072 111.339 136.072 109.478V85.1268C136.072 82.85 135.854 81.0979 135.418 79.8705C135.003 78.6232 134.092 77.9996 132.686 77.9996C131.241 77.9996 130.261 78.6034 129.746 79.8111C129.231 80.9989 128.974 82.7609 128.974 85.0971V109.478C128.974 111.379 129.053 112.943 129.212 114.17C129.39 115.378 129.736 116.269 130.251 116.843C130.786 117.417 131.568 117.704 132.597 117.704ZM151.306 124V71.7335H161.195L168.619 109.924L175.598 71.7335H185.547V124H178.449V104.519L178.746 86.6413L171.708 123.762H165.382L158.047 86.6413L158.344 104.519V124H151.306ZM193.416 124V71.7335H210.937V78.5935H201.375V93.7983H210.462V100.51H201.375V117.14H211.294V124H193.416ZM226.707 124.594C224.529 124.594 222.707 124.257 221.242 123.584C219.797 122.891 218.649 121.892 217.797 120.585C216.966 119.258 216.372 117.655 216.016 115.774C215.659 113.873 215.481 111.715 215.481 109.3V104.638H223.024V109.894C223.024 112.705 223.262 114.725 223.737 115.952C224.212 117.18 225.152 117.793 226.558 117.793C227.508 117.793 228.221 117.576 228.696 117.14C229.191 116.685 229.518 115.972 229.676 115.002C229.854 114.012 229.943 112.725 229.943 111.141C229.943 109.181 229.528 107.39 228.696 105.766C227.884 104.143 226.647 102.46 224.984 100.718L221.124 96.7383C220.054 95.6296 219.084 94.4516 218.213 93.2043C217.362 91.9571 216.679 90.5712 216.164 89.0468C215.669 87.5025 215.422 85.7801 215.422 83.8795C215.422 81.1276 215.758 78.8014 216.431 76.9008C217.105 75.0002 218.243 73.5648 219.847 72.5947C221.45 71.6048 223.648 71.1099 226.439 71.1099C228.538 71.1099 230.26 71.4365 231.606 72.0899C232.973 72.7234 234.032 73.6638 234.784 74.9111C235.556 76.1385 236.101 77.6432 236.417 79.425C236.734 81.187 236.893 83.2064 236.893 85.4832V88.7201H229.557V84.9783C229.557 83.3945 229.468 82.0779 229.29 81.0286C229.132 79.9793 228.825 79.1973 228.37 78.6826C227.914 78.148 227.251 77.8808 226.38 77.8808C225.548 77.8808 224.875 78.0688 224.36 78.445C223.846 78.8014 223.47 79.3656 223.232 80.1377C223.014 80.89 222.905 81.87 222.905 83.0777C222.905 84.1666 223.044 85.107 223.321 85.8989C223.598 86.6908 224.024 87.4531 224.598 88.1856C225.172 88.9181 225.885 89.7397 226.736 90.6504L231.042 95.3128C233.101 97.5302 234.705 99.8366 235.853 102.232C237.001 104.628 237.576 107.3 237.576 110.25C237.576 113.378 237.239 116.012 236.566 118.15C235.893 120.268 234.764 121.872 233.18 122.961C231.597 124.049 229.439 124.594 226.707 124.594ZM259.462 124V103.123L250.702 71.7335H258.304L263.471 91.2741H263.59L268.193 71.7335H275.766L267.421 103.123V124H259.462ZM291.178 124.594C288.466 124.594 286.249 124.02 284.526 122.872C282.824 121.723 281.567 120.021 280.755 117.764C279.943 115.507 279.537 112.715 279.537 109.389V85.4832C279.537 82.4739 279.933 79.9001 280.725 77.762C281.517 75.6238 282.774 73.9806 284.497 72.8323C286.219 71.684 288.476 71.1099 291.268 71.1099C293.366 71.1099 295.138 71.4365 296.583 72.0899C298.029 72.7432 299.197 73.6935 300.087 74.9408C300.978 76.1682 301.622 77.6729 302.018 79.4547C302.434 81.2167 302.641 83.2262 302.641 85.4832V109.389C302.641 112.715 302.245 115.507 301.454 117.764C300.681 120.021 299.454 121.723 297.771 122.872C296.088 124.02 293.891 124.594 291.178 124.594ZM291.178 117.704C292.168 117.704 292.911 117.407 293.406 116.813C293.901 116.219 294.227 115.319 294.386 114.111C294.564 112.883 294.653 111.339 294.653 109.478V85.1268C294.653 82.85 294.435 81.0979 294 79.8705C293.584 78.6232 292.673 77.9996 291.268 77.9996C289.822 77.9996 288.842 78.6034 288.328 79.8111C287.813 80.9989 287.555 82.7609 287.555 85.0971V109.478C287.555 111.379 287.635 112.943 287.793 114.17C287.971 115.378 288.318 116.269 288.832 116.843C289.367 117.417 290.149 117.704 291.178 117.704ZM321.053 124.594C318.341 124.594 316.134 124.089 314.431 123.079C312.728 122.05 311.481 120.506 310.689 118.447C309.897 116.368 309.501 113.745 309.501 110.577V71.7335H317.46V110.429C317.46 111.894 317.52 113.18 317.638 114.289C317.777 115.398 318.094 116.259 318.589 116.873C319.084 117.486 319.895 117.793 321.024 117.793C322.152 117.793 322.964 117.496 323.459 116.902C323.974 116.289 324.29 115.428 324.409 114.319C324.528 113.21 324.587 111.913 324.587 110.429V71.7335H332.546V110.577C332.546 113.745 332.15 116.368 331.358 118.447C330.586 120.506 329.349 122.05 327.646 123.079C325.963 124.089 323.766 124.594 321.053 124.594ZM353.661 124V78.6232H347.543V71.7335H367.47V78.6232H361.59V124H353.661ZM382.942 124.594C380.229 124.594 378.012 124.02 376.29 122.872C374.587 121.723 373.33 120.021 372.518 117.764C371.706 115.507 371.301 112.715 371.301 109.389V85.4832C371.301 82.4739 371.697 79.9001 372.488 77.762C373.28 75.6238 374.538 73.9806 376.26 72.8323C377.982 71.684 380.239 71.1099 383.031 71.1099C385.129 71.1099 386.901 71.4365 388.347 72.0899C389.792 72.7432 390.96 73.6935 391.851 74.9408C392.742 76.1682 393.385 77.6729 393.781 79.4547C394.197 81.2167 394.405 83.2262 394.405 85.4832V109.389C394.405 112.715 394.009 115.507 393.217 117.764C392.445 120.021 391.217 121.723 389.534 122.872C387.852 124.02 385.654 124.594 382.942 124.594ZM382.942 117.704C383.932 117.704 384.674 117.407 385.169 116.813C385.664 116.219 385.991 115.319 386.149 114.111C386.327 112.883 386.416 111.339 386.416 109.478V85.1268C386.416 82.85 386.198 81.0979 385.763 79.8705C385.347 78.6232 384.436 77.9996 383.031 77.9996C381.586 77.9996 380.606 78.6034 380.091 79.8111C379.576 80.9989 379.319 82.7609 379.319 85.0971V109.478C379.319 111.379 379.398 112.943 379.556 114.17C379.734 115.378 380.081 116.269 380.596 116.843C381.13 117.417 381.912 117.704 382.942 117.704Z"/>
</mask>
<path d="M6.91999 53H5.96371V53.9563H6.91999V53ZM6.91999 0.733511V-0.222766H5.96371V0.733511H6.91999ZM13.1563 0.733511L14.058 0.41502L13.8327 -0.222766H13.1563V0.733511ZM24.2333 32.0934L23.3316 32.4119L25.1888 32.0556L24.2333 32.0934ZM23.669 17.8389H22.7127V17.8578L22.7135 17.8767L23.669 17.8389ZM23.669 0.733511V-0.222766H22.7127V0.733511H23.669ZM30.826 0.733511H31.7822V-0.222766H30.826V0.733511ZM30.826 53V53.9563H31.7822V53H30.826ZM25.1836 53L24.2811 53.3162L24.5054 53.9563H25.1836V53ZM13.8097 20.5413L14.7121 20.2251L12.8539 20.5724L13.8097 20.5413ZM14.2551 34.2613H15.2114V34.2458L15.2109 34.2302L14.2551 34.2613ZM14.2551 53V53.9563H15.2114V53H14.2551ZM7.87626 53V0.733511H5.96371V53H7.87626ZM6.91999 1.68979H13.1563V-0.222766H6.91999V1.68979ZM12.2546 1.052L23.3316 32.4119L25.1349 31.7749L14.058 0.41502L12.2546 1.052ZM25.1888 32.0556L24.6245 17.8011L22.7135 17.8767L23.2777 32.1312L25.1888 32.0556ZM24.6253 17.8389V0.733511H22.7127V17.8389H24.6253ZM23.669 1.68979H30.826V-0.222766H23.669V1.68979ZM29.8697 0.733511V53H31.7822V0.733511H29.8697ZM30.826 52.0437H25.1836V53.9563H30.826V52.0437ZM26.086 52.6838L14.7121 20.2251L12.9072 20.8576L24.2811 53.3162L26.086 52.6838ZM12.8539 20.5724L13.2993 34.2923L15.2109 34.2302L14.7654 20.5103L12.8539 20.5724ZM13.2988 34.2613V53H15.2114V34.2613H13.2988ZM14.2551 52.0437H6.91999V53.9563H14.2551V52.0437ZM38.8738 53H37.9175V53.9563H38.8738V53ZM38.8738 0.733511V-0.222766H37.9175V0.733511H38.8738ZM46.8326 0.733511H47.7889V-0.222766H46.8326V0.733511ZM46.8326 53V53.9563H47.7889V53H46.8326ZM39.8301 53V0.733511H37.9175V53H39.8301ZM38.8738 1.68979H46.8326V-0.222766H38.8738V1.68979ZM45.8763 0.733511V53H47.7889V0.733511H45.8763ZM46.8326 52.0437H38.8738V53.9563H46.8326V52.0437ZM57.5828 53H56.6266V53.9563H57.5828V53ZM57.5828 7.62318H58.5391V6.66691H57.5828V7.62318ZM51.4653 7.62318H50.509V8.57946H51.4653V7.62318ZM51.4653 0.733511V-0.222766H50.509V0.733511H51.4653ZM71.3919 0.733511H72.3482V-0.222766H71.3919V0.733511ZM71.3919 7.62318V8.57946H72.3482V7.62318H71.3919ZM65.5119 7.62318V6.66691H64.5556V7.62318H65.5119ZM65.5119 53V53.9563H66.4682V53H65.5119ZM58.5391 53V7.62318H56.6266V53H58.5391ZM57.5828 6.66691H51.4653V8.57946H57.5828V6.66691ZM52.4216 7.62318V0.733511H50.509V7.62318H52.4216ZM51.4653 1.68979H71.3919V-0.222766H51.4653V1.68979ZM70.4356 0.733511V7.62318H72.3482V0.733511H70.4356ZM71.3919 6.66691H65.5119V8.57946H71.3919V6.66691ZM64.5556 7.62318V53H66.4682V7.62318H64.5556ZM65.5119 52.0437H57.5828V53.9563H65.5119V52.0437ZM86.8046 53H85.8483V53.9563H86.8046V53ZM86.8046 0.733511V-0.222766H85.8483V0.733511H86.8046ZM96.6936 0.733511L97.6323 0.551026L97.4819 -0.222766H96.6936V0.733511ZM104.118 38.9237L103.179 39.1062L105.059 39.0956L104.118 38.9237ZM111.097 0.733511V-0.222766H110.299L110.156 0.56161L111.097 0.733511ZM121.045 0.733511H122.001V-0.222766H121.045V0.733511ZM121.045 53V53.9563H122.001V53H121.045ZM113.947 53H112.991V53.9563H113.947V53ZM113.947 33.5189L112.991 33.503L112.991 33.5109V33.5189H113.947ZM114.244 15.6413L115.201 15.6572L113.305 15.4632L114.244 15.6413ZM107.206 52.7624V53.7187H107.998L108.146 52.9406L107.206 52.7624ZM100.881 52.7624L99.9427 52.9478L100.095 53.7187H100.881V52.7624ZM93.5458 15.6413L94.4839 15.456L92.5896 15.6572L93.5458 15.6413ZM93.8427 33.5189H94.799V33.5109L94.7989 33.503L93.8427 33.5189ZM93.8427 53V53.9563H94.799V53H93.8427ZM87.7608 53V0.733511H85.8483V53H87.7608ZM86.8046 1.68979H96.6936V-0.222766H86.8046V1.68979ZM95.7549 0.915996L103.179 39.1062L105.057 38.7412L97.6323 0.551026L95.7549 0.915996ZM105.059 39.0956L112.037 0.905412L110.156 0.56161L103.177 38.7518L105.059 39.0956ZM111.097 1.68979H121.045V-0.222766H111.097V1.68979ZM120.089 0.733511V53H122.001V0.733511H120.089ZM121.045 52.0437H113.947V53.9563H121.045V52.0437ZM114.904 53V33.5189H112.991V53H114.904ZM114.904 33.5347L115.201 15.6572L113.288 15.6255L112.991 33.503L114.904 33.5347ZM113.305 15.4632L106.267 52.5843L108.146 52.9406L115.184 15.8195L113.305 15.4632ZM107.206 51.8061H100.881V53.7187H107.206V51.8061ZM101.819 52.577L94.4839 15.456L92.6076 15.8267L99.9427 52.9478L101.819 52.577ZM92.5896 15.6572L92.8866 33.5347L94.7989 33.503L94.5019 15.6255L92.5896 15.6572ZM92.8864 33.5189V53H94.799V33.5189H92.8864ZM93.8427 52.0437H86.8046V53.9563H93.8427V52.0437ZM128.915 53H127.958V53.9563H128.915V53ZM128.915 0.733511V-0.222766H127.958V0.733511H128.915ZM146.436 0.733511H147.392V-0.222766H146.436V0.733511ZM146.436 7.59349V8.54976H147.392V7.59349H146.436ZM136.873 7.59349V6.63721H135.917V7.59349H136.873ZM136.873 22.7983H135.917V23.7546H136.873V22.7983ZM145.961 22.7983H146.917V21.842H145.961V22.7983ZM145.961 29.5098V30.4661H146.917V29.5098H145.961ZM136.873 29.5098V28.5535H135.917V29.5098H136.873ZM136.873 46.14H135.917V47.0963H136.873V46.14ZM146.792 46.14H147.749V45.1837H146.792V46.14ZM146.792 53V53.9563H147.749V53H146.792ZM129.871 53V0.733511H127.958V53H129.871ZM128.915 1.68979H146.436V-0.222766H128.915V1.68979ZM145.48 0.733511V7.59349H147.392V0.733511H145.48ZM146.436 6.63721H136.873V8.54976H146.436V6.63721ZM135.917 7.59349V22.7983H137.83V7.59349H135.917ZM136.873 23.7546H145.961V21.842H136.873V23.7546ZM145.004 22.7983V29.5098H146.917V22.7983H145.004ZM145.961 28.5535H136.873V30.4661H145.961V28.5535ZM135.917 29.5098V46.14H137.83V29.5098H135.917ZM136.873 47.0963H146.792V45.1837H136.873V47.0963ZM145.836 46.14V53H147.749V46.14H145.836ZM146.792 52.0437H128.915V53.9563H146.792V52.0437ZM154.899 49.8224L154.142 50.4058L154.144 50.4087L154.899 49.8224ZM152.672 8.72197L151.744 8.49238L151.742 8.50183L152.672 8.72197ZM154.751 4.05956L153.982 3.49149L153.98 3.49353L154.751 4.05956ZM158.433 1.14927L158.814 2.02648L158.824 2.02217L158.433 1.14927ZM169.481 1.17896L169.067 2.04131L169.077 2.04583L169.481 1.17896ZM172.807 4.14865L171.983 4.63514L171.988 4.64252L171.992 4.64983L172.807 4.14865ZM174.885 18.9971V19.9534H175.842V18.9971H174.885ZM167.461 18.9971H166.505V19.9534H167.461V18.9971ZM166.719 8.51409L165.857 8.9279L165.86 8.93485L165.864 8.94175L166.719 8.51409ZM160.898 8.78136L161.754 9.20903L161.756 9.20319L160.898 8.78136ZM160.75 44.6552L159.843 44.9576L159.845 44.9652L159.848 44.9728L160.75 44.6552ZM166.986 44.5958L166.108 44.2162L166.106 44.222L166.986 44.5958ZM167.936 30.2522H168.893V29.2959H167.936V30.2522ZM163.927 30.2522H162.971V31.2085H163.927V30.2522ZM163.927 24.4613V23.505H162.971V24.4613H163.927ZM174.885 24.4613H175.842V23.505H174.885V24.4613ZM174.885 53V53.9563H175.842V53H174.885ZM171.322 53L170.391 53.2205L170.566 53.9563H171.322V53ZM170.104 47.8624L171.035 47.6419L169.175 47.6377L170.104 47.8624ZM167.313 52.0497L166.767 51.2642L166.762 51.2678L167.313 52.0497ZM162.502 52.5783C159.648 52.5783 157.393 51.4761 155.655 49.2362L154.144 50.4087C156.247 53.1182 159.06 54.4908 162.502 54.4908V52.5783ZM155.657 49.2391C153.932 46.9986 152.975 43.2231 152.975 37.7061H151.063C151.063 43.3552 152.026 47.6572 154.142 50.4058L155.657 49.2391ZM152.975 37.7061V14.988H151.063V37.7061H152.975ZM152.975 14.988C152.975 12.7094 153.188 10.6967 153.603 8.94211L151.742 8.50183C151.286 10.4297 151.063 12.5943 151.063 14.988H152.975ZM153.601 8.95155C154.032 7.20724 154.679 5.77338 155.522 4.62559L153.98 3.49353C152.962 4.87987 152.223 6.55429 151.744 8.49239L153.601 8.95155ZM155.52 4.62763C156.368 3.47974 157.46 2.61449 158.814 2.02642L158.053 0.272111C156.398 0.990706 155.035 2.06565 153.982 3.49149L155.52 4.62763ZM158.824 2.02217C160.176 1.4173 161.847 1.09585 163.868 1.09585V-0.816703C161.652 -0.816703 159.7 -0.465023 158.043 0.27636L158.824 2.02217ZM163.868 1.09585C166.079 1.09585 167.794 1.43101 169.067 2.04125L169.894 0.316674C168.276 -0.458936 166.25 -0.816703 163.868 -0.816703V1.09585ZM169.077 2.04583C170.356 2.64178 171.315 3.50338 171.983 4.63514L173.63 3.66217C172.755 2.1806 171.495 1.0624 169.884 0.312099L169.077 2.04583ZM171.992 4.64983C172.703 5.80506 173.213 7.262 173.495 9.04929L175.385 8.75101C175.073 6.7767 174.494 5.06597 173.621 3.64747L171.992 4.64983ZM173.495 9.04929C173.783 10.8704 173.929 12.9475 173.929 15.285H175.842C175.842 12.871 175.691 10.6915 175.385 8.75101L173.495 9.04929ZM173.929 15.285V18.9971H175.842V15.285H173.929ZM174.885 18.0408H167.461V19.9534H174.885V18.0408ZM168.418 18.9971V13.5329H166.505V18.9971H168.418ZM168.418 13.5329C168.418 11.1596 168.176 9.29064 167.574 8.08643L165.864 8.94175C166.251 9.71733 166.505 11.1942 166.505 13.5329H168.418ZM167.581 8.10028C167.262 7.43554 166.779 6.90959 166.136 6.56025C165.505 6.21721 164.773 6.07297 163.987 6.07297V7.98552C164.547 7.98552 164.943 8.08876 165.223 8.24067C165.491 8.38628 165.701 8.60275 165.857 8.9279L167.581 8.10028ZM163.987 6.07297C163.12 6.07297 162.32 6.2436 161.629 6.63552C160.931 7.03169 160.403 7.62109 160.04 8.35953L161.756 9.20319C161.968 8.77356 162.242 8.4869 162.573 8.29903C162.911 8.10691 163.368 7.98552 163.987 7.98552V6.07297ZM160.043 8.3537C159.359 9.72187 159.081 11.9752 159.081 14.9286H160.993C160.993 11.9822 161.289 10.1374 161.754 9.20902L160.043 8.3537ZM159.081 14.9286V37.5873H160.993V14.9286H159.081ZM159.081 37.5873C159.081 40.8841 159.315 43.3744 159.843 44.9576L161.657 44.3528C161.234 43.085 160.993 40.8634 160.993 37.5873H159.081ZM159.848 44.9728C160.148 45.8265 160.635 46.536 161.343 47.0239C162.048 47.5098 162.891 47.7199 163.809 47.7199V45.8074C163.182 45.8074 162.743 45.6661 162.428 45.4492C162.117 45.2342 161.846 44.8895 161.652 44.3376L159.848 44.9728ZM163.809 47.7199C164.719 47.7199 165.556 47.4991 166.27 47.0116C166.982 46.5261 167.504 45.8227 167.866 44.9696L166.106 44.222C165.854 44.8141 165.54 45.1947 165.192 45.4317C164.848 45.6669 164.403 45.8074 163.809 45.8074V47.7199ZM167.864 44.9753C168.581 43.3174 168.893 40.7114 168.893 37.2904H166.98C166.98 40.6798 166.658 42.9441 166.108 44.2162L167.864 44.9753ZM168.893 37.2904V30.2522H166.98V37.2904H168.893ZM167.936 29.2959H163.927V31.2085H167.936V29.2959ZM164.884 30.2522V24.4613H162.971V30.2522H164.884ZM163.927 25.4176H174.885V23.505H163.927V25.4176ZM173.929 24.4613V53H175.842V24.4613H173.929ZM174.885 52.0437H171.322V53.9563H174.885V52.0437ZM172.252 52.7795L171.035 47.6419L169.174 48.083L170.391 53.2205L172.252 52.7795ZM169.175 47.6377C168.79 49.2286 167.987 50.4175 166.767 51.2642L167.858 52.8352C169.49 51.7021 170.547 50.0995 171.034 48.0872L169.175 47.6377ZM166.762 51.2678C165.526 52.1386 164.116 52.5783 162.502 52.5783V54.4908C164.491 54.4908 166.289 53.9406 167.863 52.8316L166.762 51.2678ZM182.369 53H181.413V53.9563H182.369V53ZM182.369 0.733511V-0.222766H181.413V0.733511H182.369ZM190.328 0.733511H191.284V-0.222766H190.328V0.733511ZM190.328 21.8777H189.372V22.834H190.328V21.8777ZM197.455 21.8777V22.834H198.411V21.8777H197.455ZM197.455 0.733511V-0.222766H196.499V0.733511H197.455ZM205.414 0.733511H206.37V-0.222766H205.414V0.733511ZM205.414 53V53.9563H206.37V53H205.414ZM197.455 53H196.499V53.9563H197.455V53ZM197.455 28.708H198.411V27.7517H197.455V28.708ZM190.328 28.708V27.7517H189.372V28.708H190.328ZM190.328 53V53.9563H191.284V53H190.328ZM183.325 53V0.733511H181.413V53H183.325ZM182.369 1.68979H190.328V-0.222766H182.369V1.68979ZM189.372 0.733511V21.8777H191.284V0.733511H189.372ZM190.328 22.834H197.455V20.9214H190.328V22.834ZM198.411 21.8777V0.733511H196.499V21.8777H198.411ZM197.455 1.68979H205.414V-0.222766H197.455V1.68979ZM204.458 0.733511V53H206.37V0.733511H204.458ZM205.414 52.0437H197.455V53.9563H205.414V52.0437ZM198.411 53V28.708H196.499V53H198.411ZM197.455 27.7517H190.328V29.6642H197.455V27.7517ZM189.372 28.708V53H191.284V28.708H189.372ZM190.328 52.0437H182.369V53.9563H190.328V52.0437ZM210.165 53L209.219 52.865L209.063 53.9563H210.165V53ZM217.619 0.733511V-0.222766H216.79L216.673 0.598499L217.619 0.733511ZM228.132 0.733511L229.077 0.590081L228.954 -0.222766H228.132V0.733511ZM236.061 53V53.9563H237.173L237.006 52.8566L236.061 53ZM228.637 53L227.689 53.1268L227.8 53.9563H228.637V53ZM227.39 43.6752L228.337 43.5484L228.226 42.7189H227.39V43.6752ZM218.956 43.6752V42.7189H218.108L218.006 43.5603L218.956 43.6752ZM217.827 53V53.9563H218.675L218.777 53.1149L217.827 53ZM219.728 37.2904L218.779 37.1744L218.648 38.2466H219.728V37.2904ZM226.558 37.2904V38.2466H227.65L227.506 37.1638L226.558 37.2904ZM223.054 11.0383L224.002 10.9118L223.891 10.082H223.054V11.0383ZM222.935 11.0383V10.082H222.088L221.986 10.9224L222.935 11.0383ZM211.112 53.135L218.566 0.868523L216.673 0.598499L209.219 52.865L211.112 53.135ZM217.619 1.68979H228.132V-0.222766H217.619V1.68979ZM227.187 0.876941L235.116 53.1434L237.006 52.8566L229.077 0.590081L227.187 0.876941ZM236.061 52.0437H228.637V53.9563H236.061V52.0437ZM229.585 52.8732L228.337 43.5484L226.442 43.802L227.689 53.1268L229.585 52.8732ZM227.39 42.7189H218.956V44.6315H227.39V42.7189ZM218.006 43.5603L216.878 52.8851L218.777 53.1149L219.905 43.7901L218.006 43.5603ZM217.827 52.0437H210.165V53.9563H217.827V52.0437ZM219.728 38.2466H226.558V36.3341H219.728V38.2466ZM227.506 37.1638L224.002 10.9118L222.106 11.1649L225.61 37.4169L227.506 37.1638ZM223.054 10.082H222.935V11.9946H223.054V10.082ZM221.986 10.9224L218.779 37.1744L220.677 37.4063L223.884 11.1543L221.986 10.9224ZM240.813 53H239.856V53.9563H240.813V53ZM240.813 0.733511V-0.222766H239.856V0.733511H240.813ZM248.771 0.733511H249.728V-0.222766H248.771V0.733511ZM248.771 46.2291H247.815V47.1854H248.771V46.2291ZM258.839 46.2291H259.795V45.2728H258.839V46.2291ZM258.839 53V53.9563H259.795V53H258.839ZM241.769 53V0.733511H239.856V53H241.769ZM240.813 1.68979H248.771V-0.222766H240.813V1.68979ZM247.815 0.733511V46.2291H249.728V0.733511H247.815ZM248.771 47.1854H258.839V45.2728H248.771V47.1854ZM257.882 46.2291V53H259.795V46.2291H257.882ZM258.839 52.0437H240.813V53.9563H258.839V52.0437ZM260.056 53L259.109 52.865L258.954 53.9563H260.056V53ZM267.51 0.733511V-0.222766H266.68L266.563 0.598499L267.51 0.733511ZM278.023 0.733511L278.968 0.590081L278.845 -0.222766H278.023V0.733511ZM285.952 53V53.9563H287.064L286.897 52.8566L285.952 53ZM278.528 53L277.58 53.1268L277.691 53.9563H278.528V53ZM277.28 43.6752L278.228 43.5484L278.117 42.7189H277.28V43.6752ZM268.846 43.6752V42.7189H267.999L267.897 43.5603L268.846 43.6752ZM267.718 53V53.9563H268.565L268.667 53.1149L267.718 53ZM269.618 37.2904L268.669 37.1744L268.538 38.2466H269.618V37.2904ZM276.449 37.2904V38.2466H277.541L277.397 37.1638L276.449 37.2904ZM272.945 11.0383L273.892 10.9118L273.782 10.082H272.945V11.0383ZM272.826 11.0383V10.082H271.979L271.877 10.9224L272.826 11.0383ZM261.003 53.135L268.457 0.868523L266.563 0.598499L259.109 52.865L261.003 53.135ZM267.51 1.68979H278.023V-0.222766H267.51V1.68979ZM277.077 0.876941L285.006 53.1434L286.897 52.8566L278.968 0.590081L277.077 0.876941ZM285.952 52.0437H278.528V53.9563H285.952V52.0437ZM279.475 52.8732L278.228 43.5484L276.332 43.802L277.58 53.1268L279.475 52.8732ZM277.28 42.7189H268.846V44.6315H277.28V42.7189ZM267.897 43.5603L266.769 52.8851L268.667 53.1149L269.796 43.7901L267.897 43.5603ZM267.718 52.0437H260.056V53.9563H267.718V52.0437ZM269.618 38.2466H276.449V36.3341H269.618V38.2466ZM277.397 37.1638L273.892 10.9118L271.997 11.1649L275.501 37.4169L277.397 37.1638ZM272.945 10.082H272.826V11.9946H272.945V10.082ZM271.877 10.9224L268.669 37.1744L270.568 37.4063L273.775 11.1543L271.877 10.9224ZM294.861 53H293.905V53.9563H294.861V53ZM294.861 32.1231H295.817V31.9922L295.782 31.866L294.861 32.1231ZM286.1 0.733511V-0.222766H284.841L285.179 0.990576L286.1 0.733511ZM293.703 0.733511L294.627 0.489039L294.439 -0.222766H293.703V0.733511ZM298.87 20.2741L297.945 20.5185L298.134 21.2303H298.87V20.2741ZM298.989 20.2741V21.2303H299.746L299.919 20.4933L298.989 20.2741ZM303.592 0.733511V-0.222766H302.835L302.661 0.51425L303.592 0.733511ZM311.164 0.733511L312.089 0.9792L312.408 -0.222766H311.164V0.733511ZM302.82 32.1231L301.895 31.8774L301.863 31.9982V32.1231H302.82ZM302.82 53V53.9563H303.776V53H302.82ZM295.817 53V32.1231H293.905V53H295.817ZM295.782 31.866L287.021 0.476446L285.179 0.990576L293.94 32.3802L295.782 31.866ZM286.1 1.68979H293.703V-0.222766H286.1V1.68979ZM292.778 0.977983L297.945 20.5185L299.794 20.0296L294.627 0.489039L292.778 0.977983ZM298.87 21.2303H298.989V19.3178H298.87V21.2303ZM299.919 20.4933L304.523 0.952773L302.661 0.51425L298.058 20.0548L299.919 20.4933ZM303.592 1.68979H311.164V-0.222766H303.592V1.68979ZM310.24 0.487822L301.895 31.8774L303.744 32.3688L312.089 0.9792L310.24 0.487822ZM301.863 32.1231V53H303.776V32.1231H301.863ZM302.82 52.0437H294.861V53.9563H302.82V52.0437ZM311.313 53L310.366 52.865L310.211 53.9563H311.313V53ZM318.767 0.733511V-0.222766H317.937L317.82 0.598499L318.767 0.733511ZM329.28 0.733511L330.225 0.590081L330.102 -0.222766H329.28V0.733511ZM337.209 53V53.9563H338.321L338.154 52.8566L337.209 53ZM329.784 53L328.837 53.1268L328.947 53.9563H329.784V53ZM328.537 43.6752L329.485 43.5484L329.374 42.7189H328.537V43.6752ZM320.103 43.6752V42.7189H319.256L319.154 43.5603L320.103 43.6752ZM318.975 53V53.9563H319.822L319.924 53.1149L318.975 53ZM320.875 37.2904L319.926 37.1744L319.795 38.2466H320.875V37.2904ZM327.706 37.2904V38.2466H328.798L328.653 37.1638L327.706 37.2904ZM324.201 11.0383L325.149 10.9118L325.038 10.082H324.201V11.0383ZM324.083 11.0383V10.082H323.236L323.133 10.9224L324.083 11.0383ZM312.26 53.135L319.714 0.868523L317.82 0.598499L310.366 52.865L312.26 53.135ZM318.767 1.68979H329.28V-0.222766H318.767V1.68979ZM328.334 0.876941L336.263 53.1434L338.154 52.8566L330.225 0.590081L328.334 0.876941ZM337.209 52.0437H329.784V53.9563H337.209V52.0437ZM330.732 52.8732L329.485 43.5484L327.589 43.802L328.837 53.1268L330.732 52.8732ZM328.537 42.7189H320.103V44.6315H328.537V42.7189ZM319.154 43.5603L318.025 52.8851L319.924 53.1149L321.053 43.7901L319.154 43.5603ZM318.975 52.0437H311.313V53.9563H318.975V52.0437ZM320.875 38.2466H327.706V36.3341H320.875V38.2466ZM328.653 37.1638L325.149 10.9118L323.253 11.1649L326.758 37.4169L328.653 37.1638ZM324.201 10.082H324.083V11.9946H324.201V10.082ZM323.133 10.9224L319.926 37.1744L321.825 37.4063L325.032 11.1543L323.133 10.9224ZM10.7509 124L9.80166 124.116L9.90432 124.956H10.7509V124ZM4.36606 71.7335V70.7772H3.28585L3.41684 71.8495L4.36606 71.7335ZM11.4933 71.7335L12.4446 71.6357L12.3563 70.7772H11.4933V71.7335ZM15.3242 108.973L14.3729 109.071L16.2724 109.097L15.3242 108.973ZM20.1945 71.7335V70.7772H19.3551L19.2463 71.6095L20.1945 71.7335ZM26.609 71.7335L27.5571 71.6088L27.4477 70.7772H26.609V71.7335ZM31.509 108.973L30.5609 109.098L32.4613 109.06L31.509 108.973ZM34.8944 71.7335V70.7772H34.0212L33.9421 71.6469L34.8944 71.7335ZM42.0514 71.7335L43.0014 71.8425L43.1237 70.7772H42.0514V71.7335ZM36.0526 124V124.956H36.9054L37.0027 124.109L36.0526 124ZM28.1236 124L27.1757 124.126L27.2863 124.956H28.1236V124ZM23.4908 89.2547L24.4387 89.1283L22.5436 89.1235L23.4908 89.2547ZM18.6799 124V124.956H19.5129L19.6272 124.131L18.6799 124ZM11.7001 123.884L5.31528 71.6176L3.41684 71.8495L9.80166 124.116L11.7001 123.884ZM4.36606 72.6898H11.4933V70.7772H4.36606V72.6898ZM10.542 71.8314L14.3729 109.071L16.2755 108.876L12.4446 71.6357L10.542 71.8314ZM16.2724 109.097L21.1427 71.8575L19.2463 71.6095L14.376 108.849L16.2724 109.097ZM20.1945 72.6898H26.609V70.7772H20.1945V72.6898ZM25.6609 71.8583L30.5609 109.098L32.4571 108.849L27.5571 71.6088L25.6609 71.8583ZM32.4613 109.06L35.8468 71.8201L33.9421 71.6469L30.5566 108.887L32.4613 109.06ZM34.8944 72.6898H42.0514V70.7772H34.8944V72.6898ZM41.1013 71.6245L35.1026 123.891L37.0027 124.109L43.0014 71.8425L41.1013 71.6245ZM36.0526 123.044H28.1236V124.956H36.0526V123.044ZM29.0714 123.874L24.4387 89.1283L22.543 89.381L27.1757 124.126L29.0714 123.874ZM22.5436 89.1235L17.7327 123.869L19.6272 124.131L24.4381 89.3858L22.5436 89.1235ZM18.6799 123.044H10.7509V124.956H18.6799V123.044ZM47.3077 124H46.3515V124.956H47.3077V124ZM47.3077 71.7335V70.7772H46.3515V71.7335H47.3077ZM64.8289 71.7335H65.7852V70.7772H64.8289V71.7335ZM64.8289 78.5935V79.5498H65.7852V78.5935H64.8289ZM55.2665 78.5935V77.6372H54.3102V78.5935H55.2665ZM55.2665 93.7983H54.3102V94.7546H55.2665V93.7983ZM64.3537 93.7983H65.31V92.842H64.3537V93.7983ZM64.3537 100.51V101.466H65.31V100.51H64.3537ZM55.2665 100.51V99.5535H54.3102V100.51H55.2665ZM55.2665 117.14H54.3102V118.096H55.2665V117.14ZM65.1852 117.14H66.1415V116.184H65.1852V117.14ZM65.1852 124V124.956H66.1415V124H65.1852ZM48.264 124V71.7335H46.3515V124H48.264ZM47.3077 72.6898H64.8289V70.7772H47.3077V72.6898ZM63.8726 71.7335V78.5935H65.7852V71.7335H63.8726ZM64.8289 77.6372H55.2665V79.5498H64.8289V77.6372ZM54.3102 78.5935V93.7983H56.2228V78.5935H54.3102ZM55.2665 94.7546H64.3537V92.842H55.2665V94.7546ZM63.3975 93.7983V100.51H65.31V93.7983H63.3975ZM64.3537 99.5535H55.2665V101.466H64.3537V99.5535ZM54.3102 100.51V117.14H56.2228V100.51H54.3102ZM55.2665 118.096H65.1852V116.184H55.2665V118.096ZM64.229 117.14V124H66.1415V117.14H64.229ZM65.1852 123.044H47.3077V124.956H65.1852V123.044ZM71.0652 124H70.1089V124.956H71.0652V124ZM71.0652 71.7335V70.7772H70.1089V71.7335H71.0652ZM79.024 71.7335H79.9803V70.7772H79.024V71.7335ZM79.024 117.229H78.0677V118.185H79.024V117.229ZM89.0912 117.229H90.0475V116.273H89.0912V117.229ZM89.0912 124V124.956H90.0475V124H89.0912ZM72.0215 124V71.7335H70.1089V124H72.0215ZM71.0652 72.6898H79.024V70.7772H71.0652V72.6898ZM78.0677 71.7335V117.229H79.9803V71.7335H78.0677ZM79.024 118.185H89.0912V116.273H79.024V118.185ZM88.1349 117.229V124H90.0475V117.229H88.1349ZM89.0912 123.044H71.0652V124.956H89.0912V123.044ZM97.1985 122.842L96.6532 123.627L97.1985 122.842ZM93.3973 117.734L92.4999 118.065L92.5035 118.074L93.3973 117.734ZM92.7439 80.3159L91.8074 80.1228L92.7439 80.3159ZM108.78 72.1196L108.372 72.9845L108.38 72.988L108.387 72.9914L108.78 72.1196ZM112.195 74.8814L111.42 75.4408L111.426 75.4491L112.195 74.8814ZM114.126 79.2765L113.194 79.4908L113.197 79.5034L114.126 79.2765ZM114.749 92.2244V93.1806H115.706V92.2244H114.749ZM107.058 92.2244H106.102V93.1806H107.058V92.2244ZM106.404 79.8705L105.503 80.1902L105.505 80.1949L106.404 79.8705ZM100.881 80.0189L99.9849 79.6846L99.9822 79.6921L100.881 80.0189ZM100.465 114.408L99.5223 114.568L99.5239 114.577L99.5256 114.586L100.465 114.408ZM101.534 116.962L100.821 117.599L100.827 117.605L100.833 117.612L101.534 116.962ZM107.058 102.351V101.395H106.102V102.351H107.058ZM114.868 102.351H115.824V101.395H114.868V102.351ZM113.71 118.031L114.612 118.348L114.613 118.345L113.71 118.031ZM110.028 122.961L109.508 122.158L109.504 122.161L110.028 122.961ZM103.524 123.638C101.138 123.638 99.232 123.089 97.7438 122.056L96.6532 123.627C98.5306 124.931 100.842 125.55 103.524 125.55V123.638ZM97.7438 122.056C96.2447 121.016 95.0856 119.482 94.291 117.394L92.5035 118.074C93.4116 120.46 94.7866 122.332 96.6532 123.627L97.7438 122.056ZM94.2946 117.403C93.5125 115.28 93.1063 112.677 93.1063 109.567H91.1937C91.1937 112.833 91.6191 115.674 92.5 118.065L94.2946 117.403ZM93.1063 109.567V86.7898H91.1937V109.567H93.1063ZM93.1063 86.7898C93.1063 84.4454 93.3002 82.3537 93.6805 80.509L91.8074 80.1228C91.3958 82.1189 91.1937 84.3431 91.1937 86.7898H93.1063ZM93.6805 80.509C94.0571 78.6828 94.6615 77.1563 95.4752 75.9086L93.8732 74.8638C92.9052 76.3482 92.2227 78.1083 91.8074 80.1228L93.6805 80.509ZM95.4752 75.9086C96.271 74.6884 97.3274 73.7538 98.6609 73.096L97.8148 71.3808C96.1787 72.1879 94.8593 73.3519 93.8732 74.8638L95.4752 75.9086ZM98.6609 73.096C99.9795 72.4455 101.656 72.0959 103.732 72.0959V70.1833C101.452 70.1833 99.466 70.5662 97.8148 71.3808L98.6609 73.096ZM103.732 72.0959C105.61 72.0959 107.146 72.4062 108.372 72.9845L109.188 71.2546C107.643 70.5263 105.813 70.1833 103.732 70.1833V72.0959ZM108.387 72.9914C109.646 73.5586 110.65 74.3739 111.42 75.4408L112.971 74.322C111.998 72.9735 110.726 71.9476 109.173 71.2478L108.387 72.9914ZM111.426 75.4491C112.226 76.5343 112.822 77.8737 113.194 79.4908L115.058 79.0623C114.637 77.2345 113.946 75.6438 112.965 74.3137L111.426 75.4491ZM113.197 79.5034C113.591 81.1176 113.793 82.9599 113.793 85.0377H115.706C115.706 82.8392 115.492 80.8407 115.055 79.0497L113.197 79.5034ZM113.793 85.0377V92.2244H115.706V85.0377H113.793ZM114.749 91.2681H107.058V93.1806H114.749V91.2681ZM108.014 92.2244V85.5426H106.102V92.2244H108.014ZM108.014 85.5426C108.014 82.9464 107.798 80.9169 107.304 79.546L105.505 80.1949C105.882 81.2393 106.102 82.9913 106.102 85.5426H108.014ZM107.306 79.5507C107.037 78.7925 106.606 78.152 105.975 77.7078C105.345 77.2638 104.596 77.073 103.791 77.073V78.9855C104.293 78.9855 104.633 79.1015 104.874 79.2713C105.114 79.4409 105.337 79.7209 105.503 80.1902L107.306 79.5507ZM103.791 77.073C102.921 77.073 102.117 77.2742 101.44 77.7373C100.761 78.2014 100.287 78.8752 99.9849 79.6846L101.777 80.3532C101.97 79.8362 102.228 79.5152 102.519 79.3161C102.812 79.1159 103.216 78.9855 103.791 78.9855V77.073ZM99.9822 79.6921C99.4515 81.1516 99.2119 83.1117 99.2119 85.5129H101.124C101.124 83.2021 101.36 81.4996 101.78 80.3457L99.9822 79.6921ZM99.2119 85.5129V109.924H101.124V85.5129H99.2119ZM99.2119 109.924C99.2119 111.773 99.312 113.327 99.5223 114.568L101.408 114.248C101.222 113.153 101.124 111.717 101.124 109.924H99.2119ZM99.5256 114.586C99.7588 115.816 100.162 116.861 100.821 117.599L102.248 116.325C101.917 115.954 101.607 115.296 101.405 114.23L99.5256 114.586ZM100.833 117.612C101.548 118.384 102.52 118.72 103.613 118.72V116.807C102.925 116.807 102.511 116.609 102.236 116.312L100.833 117.612ZM103.613 118.72C104.439 118.72 105.205 118.524 105.852 118.074C106.499 117.624 106.95 116.974 107.24 116.199L105.45 115.527C105.265 116.02 105.024 116.32 104.76 116.503C104.496 116.687 104.133 116.807 103.613 116.807V118.72ZM107.24 116.199C107.779 114.762 108.014 112.608 108.014 109.835H106.102C106.102 112.565 105.861 114.43 105.45 115.527L107.24 116.199ZM108.014 109.835V102.351H106.102V109.835H108.014ZM107.058 103.307H114.868V101.395H107.058V103.307ZM113.912 102.351V109.746H115.824V102.351H113.912ZM113.912 109.746C113.912 112.985 113.533 115.632 112.807 117.716L114.613 118.345C115.431 115.995 115.824 113.119 115.824 109.746H113.912ZM112.808 117.714C112.094 119.745 110.985 121.202 109.508 122.158L110.547 123.763C112.436 122.541 113.782 120.712 114.612 118.348L112.808 117.714ZM109.504 122.161C108.042 123.118 106.073 123.638 103.524 123.638V125.55C106.32 125.55 108.687 124.981 110.551 123.761L109.504 122.161ZM125.945 122.872L125.41 123.664L125.415 123.667L125.945 122.872ZM122.174 117.764L121.274 118.087L122.174 117.764ZM141.506 74.9408L140.728 75.4966L140.732 75.5025L141.506 74.9408ZM143.436 79.4547L142.503 79.6622L142.506 79.6743L143.436 79.4547ZM142.872 117.764L141.97 117.447L141.967 117.454L142.872 117.764ZM135.804 114.111L134.858 113.974L134.856 113.987L135.804 114.111ZM135.418 79.8705L134.511 80.1729L134.514 80.1816L134.517 80.1902L135.418 79.8705ZM129.746 79.8111L130.624 80.1913L130.626 80.186L129.746 79.8111ZM129.212 114.17L128.263 114.293L128.264 114.301L128.266 114.31L129.212 114.17ZM130.251 116.843L129.539 117.481L129.545 117.488L129.551 117.495L130.251 116.843ZM132.597 123.638C130.016 123.638 127.999 123.091 126.475 122.076L125.415 123.667C127.336 124.948 129.754 125.55 132.597 125.55V123.638ZM126.48 122.079C124.973 121.062 123.828 119.539 123.073 117.44L121.274 118.087C122.142 120.502 123.512 122.384 125.41 123.664L126.48 122.079ZM123.073 117.44C122.31 115.318 121.912 112.644 121.912 109.389H120C120 112.786 120.413 115.695 121.274 118.087L123.073 117.44ZM121.912 109.389V85.4832H120V109.389H121.912ZM121.912 85.4832C121.912 82.553 122.298 80.098 123.041 78.0941L121.247 77.4298C120.405 79.7023 120 82.3947 120 85.4832H121.912ZM123.041 78.0941C123.77 76.125 124.908 74.6529 126.446 73.628L125.385 72.0366C123.477 73.3083 122.102 75.1226 121.247 77.4298L123.041 78.0941ZM126.446 73.628C127.965 72.6151 130.019 72.0662 132.686 72.0662V70.1536C129.77 70.1536 127.31 70.7529 125.385 72.0366L126.446 73.628ZM132.686 72.0662C134.691 72.0662 136.32 72.3789 137.608 72.9613L138.396 71.2185C136.794 70.4942 134.879 70.1536 132.686 70.1536V72.0662ZM137.608 72.9613C138.905 73.5476 139.939 74.3915 140.728 75.4966L142.284 74.3849C141.292 72.9956 139.989 71.9388 138.396 71.2185L137.608 72.9613ZM140.732 75.5025C141.532 76.6048 142.13 77.9826 142.503 79.6621L144.37 79.2473C143.951 77.3631 143.262 75.7317 142.28 74.3791L140.732 75.5025ZM142.506 79.6743C142.901 81.3493 143.104 83.2828 143.104 85.4832H145.016C145.016 83.1696 144.804 81.0842 144.367 79.2351L142.506 79.6743ZM143.104 85.4832V109.389H145.016V85.4832H143.104ZM143.104 109.389C143.104 112.646 142.715 115.323 141.97 117.447L143.775 118.08C144.613 115.69 145.016 112.784 145.016 109.389H143.104ZM141.967 117.454C141.25 119.55 140.135 121.069 138.651 122.082L139.729 123.661C141.61 122.378 142.95 120.491 143.777 118.073L141.967 117.454ZM138.651 122.082C137.172 123.091 135.18 123.638 132.597 123.638V125.55C135.439 125.55 137.842 124.949 139.729 123.661L138.651 122.082ZM132.597 118.661C133.785 118.661 134.834 118.296 135.559 117.426L134.09 116.201C133.825 116.519 133.389 116.748 132.597 116.748V118.661ZM135.559 117.426C136.219 116.634 136.583 115.528 136.753 114.235L134.856 113.987C134.709 115.109 134.42 115.805 134.09 116.201L135.559 117.426ZM136.751 114.248C136.938 112.959 137.028 111.365 137.028 109.478H135.115C135.115 111.314 135.027 112.808 134.858 113.974L136.751 114.248ZM137.028 109.478V85.1268H135.115V109.478H137.028ZM137.028 85.1268C137.028 82.8099 136.809 80.9301 136.32 79.5507L134.517 80.1902C134.899 81.2657 135.115 82.8902 135.115 85.1268H137.028ZM136.326 79.5681C136.065 78.7856 135.622 78.1292 134.964 77.6783C134.311 77.2311 133.529 77.0433 132.686 77.0433V78.9558C133.249 78.9558 133.625 79.0798 133.883 79.2563C134.135 79.4289 134.356 79.7081 134.511 80.1729L136.326 79.5681ZM132.686 77.0433C131.831 77.0433 131.041 77.2224 130.366 77.6383C129.684 78.0581 129.19 78.6768 128.867 79.4361L130.626 80.186C130.817 79.7376 131.07 79.4506 131.369 79.2666C131.674 79.0786 132.096 78.9558 132.686 78.9558V77.0433ZM128.869 79.4308C128.276 80.7995 128.018 82.7185 128.018 85.0971H129.93C129.93 82.8033 130.187 81.1984 130.624 80.1913L128.869 79.4308ZM128.018 85.0971V109.478H129.93V85.0971H128.018ZM128.018 109.478C128.018 111.401 128.098 113.009 128.263 114.293L130.16 114.048C130.009 112.876 129.93 111.357 129.93 109.478H128.018ZM128.266 114.31C128.457 115.604 128.846 116.708 129.539 117.481L130.963 116.205C130.627 115.83 130.323 115.152 130.158 114.031L128.266 114.31ZM129.551 117.495C130.318 118.319 131.389 118.661 132.597 118.661V116.748C131.746 116.748 131.253 116.516 130.951 116.191L129.551 117.495ZM151.306 124H150.35V124.956H151.306V124ZM151.306 71.7335V70.7772H150.35V71.7335H151.306ZM161.195 71.7335L162.134 71.551L161.983 70.7772H161.195V71.7335ZM168.619 109.924L167.681 110.106L169.56 110.096L168.619 109.924ZM175.598 71.7335V70.7772H174.801L174.657 71.5616L175.598 71.7335ZM185.547 71.7335H186.503V70.7772H185.547V71.7335ZM185.547 124V124.956H186.503V124H185.547ZM178.449 124H177.493V124.956H178.449V124ZM178.449 104.519L177.493 104.503L177.493 104.511V104.519H178.449ZM178.746 86.6413L179.702 86.6572L177.807 86.4632L178.746 86.6413ZM171.708 123.762V124.719H172.5L172.647 123.941L171.708 123.762ZM165.382 123.762L164.444 123.948L164.597 124.719H165.382V123.762ZM158.047 86.6413L158.985 86.456L157.091 86.6572L158.047 86.6413ZM158.344 104.519H159.301V104.511L159.3 104.503L158.344 104.519ZM158.344 124V124.956H159.301V124H158.344ZM152.262 124V71.7335H150.35V124H152.262ZM151.306 72.6898H161.195V70.7772H151.306V72.6898ZM160.257 71.916L167.681 110.106L169.558 109.741L162.134 71.551L160.257 71.916ZM169.56 110.096L176.539 71.9054L174.657 71.5616L167.679 109.752L169.56 110.096ZM175.598 72.6898H185.547V70.7772H175.598V72.6898ZM184.59 71.7335V124H186.503V71.7335H184.59ZM185.547 123.044H178.449V124.956H185.547V123.044ZM179.405 124V104.519H177.493V124H179.405ZM179.405 104.535L179.702 86.6572L177.79 86.6255L177.493 104.503L179.405 104.535ZM177.807 86.4632L170.768 123.584L172.647 123.941L179.686 86.8195L177.807 86.4632ZM171.708 122.806H165.382V124.719H171.708V122.806ZM166.321 123.577L158.985 86.456L157.109 86.8267L164.444 123.948L166.321 123.577ZM157.091 86.6572L157.388 104.535L159.3 104.503L159.003 86.6255L157.091 86.6572ZM157.388 104.519V124H159.301V104.519H157.388ZM158.344 123.044H151.306V124.956H158.344V123.044ZM193.416 124H192.46V124.956H193.416V124ZM193.416 71.7335V70.7772H192.46V71.7335H193.416ZM210.937 71.7335H211.894V70.7772H210.937V71.7335ZM210.937 78.5935V79.5498H211.894V78.5935H210.937ZM201.375 78.5935V77.6372H200.419V78.5935H201.375ZM201.375 93.7983H200.419V94.7546H201.375V93.7983ZM210.462 93.7983H211.419V92.842H210.462V93.7983ZM210.462 100.51V101.466H211.419V100.51H210.462ZM201.375 100.51V99.5535H200.419V100.51H201.375ZM201.375 117.14H200.419V118.096H201.375V117.14ZM211.294 117.14H212.25V116.184H211.294V117.14ZM211.294 124V124.956H212.25V124H211.294ZM194.373 124V71.7335H192.46V124H194.373ZM193.416 72.6898H210.937V70.7772H193.416V72.6898ZM209.981 71.7335V78.5935H211.894V71.7335H209.981ZM210.937 77.6372H201.375V79.5498H210.937V77.6372ZM200.419 78.5935V93.7983H202.331V78.5935H200.419ZM201.375 94.7546H210.462V92.842H201.375V94.7546ZM209.506 93.7983V100.51H211.419V93.7983H209.506ZM210.462 99.5535H201.375V101.466H210.462V99.5535ZM200.419 100.51V117.14H202.331V100.51H200.419ZM201.375 118.096H211.294V116.184H201.375V118.096ZM210.338 117.14V124H212.25V117.14H210.338ZM211.294 123.044H193.416V124.956H211.294V123.044ZM221.242 123.584L220.829 124.447L220.836 124.45L220.843 124.453L221.242 123.584ZM217.797 120.585L216.987 121.093L216.992 121.1L216.996 121.107L217.797 120.585ZM216.016 115.774L215.076 115.95L215.076 115.952L216.016 115.774ZM215.481 104.638V103.681H214.525V104.638H215.481ZM223.024 104.638H223.98V103.681H223.024V104.638ZM228.696 117.14L229.342 117.845L229.344 117.844L228.696 117.14ZM229.676 115.002L228.735 114.832L228.734 114.84L228.732 114.848L229.676 115.002ZM228.696 105.766L227.841 106.194L227.845 106.202L228.696 105.766ZM224.984 100.718L225.676 100.057L225.67 100.052L224.984 100.718ZM221.124 96.7383L220.435 97.4021L220.437 97.4041L221.124 96.7383ZM218.213 93.2043L217.423 93.7435L217.429 93.7519L218.213 93.2043ZM216.164 89.0468L215.253 89.3387L215.256 89.3457L215.258 89.3527L216.164 89.0468ZM219.847 72.5947L220.342 73.413L220.349 73.4085L219.847 72.5947ZM231.606 72.0899L231.189 72.9502L231.197 72.9539L231.204 72.9574L231.606 72.0899ZM234.784 74.9111L233.965 75.405L233.97 75.4127L233.975 75.4202L234.784 74.9111ZM236.417 79.425L235.476 79.5924L235.476 79.5942L236.417 79.425ZM236.893 88.7201V89.6764H237.849V88.7201H236.893ZM229.557 88.7201H228.601V89.6764H229.557V88.7201ZM229.29 81.0286L228.345 81.1714L228.346 81.1801L228.347 81.1887L229.29 81.0286ZM228.37 78.6826L227.642 79.3027L227.647 79.3095L227.653 79.3162L228.37 78.6826ZM224.36 78.445L224.905 79.2312L224.915 79.2243L224.925 79.2171L224.36 78.445ZM223.232 80.1377L222.318 79.8565L222.316 79.8641L222.313 79.8718L223.232 80.1377ZM226.736 90.6504L227.439 90.0016L227.435 89.9974L226.736 90.6504ZM231.042 95.3128L230.34 95.9616L230.342 95.9635L231.042 95.3128ZM236.566 118.15L237.477 118.439L237.478 118.437L236.566 118.15ZM226.707 123.638C224.621 123.638 222.946 123.314 221.642 122.715L220.843 124.453C222.469 125.2 224.437 125.55 226.707 125.55V123.638ZM221.656 122.722C220.364 122.103 219.352 121.218 218.599 120.063L216.996 121.107C217.946 122.565 219.23 123.68 220.829 124.447L221.656 122.722ZM218.608 120.077C217.852 118.871 217.294 117.385 216.955 115.596L215.076 115.952C215.45 117.925 216.08 119.646 216.987 121.093L218.608 120.077ZM216.956 115.598C216.612 113.767 216.437 111.67 216.437 109.3H214.525C214.525 111.761 214.706 113.979 215.076 115.95L216.956 115.598ZM216.437 109.3V104.638H214.525V109.3H216.437ZM215.481 105.594H223.024V103.681H215.481V105.594ZM222.068 104.638V109.894H223.98V104.638H222.068ZM222.068 109.894C222.068 112.72 222.301 114.893 222.845 116.297L224.629 115.607C224.222 114.556 223.98 112.691 223.98 109.894H222.068ZM222.845 116.297C223.142 117.065 223.61 117.7 224.276 118.134C224.936 118.565 225.716 118.75 226.558 118.75V116.837C225.994 116.837 225.601 116.715 225.321 116.532C225.046 116.353 224.807 116.067 224.629 115.607L222.845 116.297ZM226.558 118.75C227.636 118.75 228.623 118.504 229.342 117.845L228.05 116.435C227.819 116.647 227.381 116.837 226.558 116.837V118.75ZM229.344 117.844C230.054 117.19 230.442 116.243 230.62 115.156L228.732 114.848C228.593 115.701 228.328 116.179 228.049 116.436L229.344 117.844ZM230.617 115.171C230.81 114.103 230.9 112.754 230.9 111.141H228.987C228.987 112.697 228.899 113.921 228.735 114.832L230.617 115.171ZM230.9 111.141C230.9 109.041 230.453 107.098 229.547 105.33L227.845 106.202C228.602 107.681 228.987 109.321 228.987 111.141H230.9ZM229.552 105.338C228.686 103.607 227.385 101.847 225.676 100.057L224.292 101.378C225.91 103.072 227.083 104.678 227.841 106.194L229.552 105.338ZM225.67 100.052L221.81 96.0724L220.437 97.4041L224.298 101.384L225.67 100.052ZM221.812 96.0745C220.777 95.0015 219.839 93.8624 218.997 92.6568L217.429 93.7519C218.329 95.0409 219.332 96.2577 220.435 97.4021L221.812 96.0745ZM219.003 92.6653C218.204 91.4946 217.559 90.188 217.07 88.7409L215.258 89.3527C215.799 90.9544 216.52 92.4196 217.423 93.7434L219.003 92.6653ZM217.075 88.7549C216.615 87.3196 216.378 85.6977 216.378 83.8795H214.465C214.465 85.8626 214.724 87.6855 215.253 89.3387L217.075 88.7549ZM216.378 83.8795C216.378 81.1994 216.707 78.9883 217.333 77.22L215.53 76.5815C214.81 78.6145 214.465 81.0558 214.465 83.8795H216.378ZM217.333 77.22C217.938 75.5107 218.942 74.2597 220.342 73.4129L219.352 71.7765C217.544 72.87 216.271 74.4896 215.53 76.5815L217.333 77.22ZM220.349 73.4085C221.746 72.5463 223.745 72.0662 226.439 72.0662V70.1536C223.55 70.1536 221.155 70.6633 219.344 71.781L220.349 73.4085ZM226.439 72.0662C228.448 72.0662 230.014 72.3801 231.189 72.9502L232.024 71.2296C230.506 70.4929 228.628 70.1536 226.439 70.1536V72.0662ZM231.204 72.9574C232.403 73.5136 233.315 74.3268 233.965 75.405L235.603 74.4172C234.749 73.0009 233.542 71.9332 232.009 71.2224L231.204 72.9574ZM233.975 75.4202C234.667 76.521 235.176 77.9029 235.476 79.5924L237.359 79.2576C237.026 77.3835 236.445 75.7561 235.594 74.4019L233.975 75.4202ZM235.476 79.5942C235.781 81.2877 235.936 83.2487 235.936 85.4832H237.849C237.849 83.1641 237.688 81.0863 237.359 79.2558L235.476 79.5942ZM235.936 85.4832V88.7201H237.849V85.4832H235.936ZM236.893 87.7638H229.557V89.6764H236.893V87.7638ZM230.514 88.7201V84.9783H228.601V88.7201H230.514ZM230.514 84.9783C230.514 83.3641 230.423 81.9895 230.233 80.8685L228.347 81.1887C228.513 82.1663 228.601 83.4249 228.601 84.9783H230.514ZM230.236 80.8859C230.064 79.746 229.713 78.7579 229.086 78.049L227.653 79.3162C227.937 79.6368 228.2 80.2126 228.345 81.1714L230.236 80.8859ZM229.097 78.0625C228.418 77.2645 227.458 76.9245 226.38 76.9245V78.837C227.044 78.837 227.411 79.0315 227.642 79.3027L229.097 78.0625ZM226.38 76.9245C225.407 76.9245 224.518 77.1452 223.796 77.6729L224.925 79.2171C225.232 78.9924 225.69 78.837 226.38 78.837V76.9245ZM223.816 77.6588C223.079 78.1688 222.6 78.9395 222.318 79.8565L224.146 80.419C224.339 79.7917 224.612 79.4339 224.905 79.2312L223.816 77.6588ZM222.313 79.8718C222.061 80.744 221.949 81.8231 221.949 83.0777H223.862C223.862 81.9169 223.967 81.0361 224.151 80.4036L222.313 79.8718ZM221.949 83.0777C221.949 84.2438 222.097 85.2962 222.418 86.2148L224.224 85.583C223.991 84.9178 223.862 84.0894 223.862 83.0777H221.949ZM222.418 86.2148C222.734 87.1159 223.214 87.9694 223.845 88.7755L225.351 87.5957C224.834 86.9367 224.463 86.2658 224.224 85.583L222.418 86.2148ZM223.845 88.7755C224.441 89.5357 225.173 90.3788 226.038 91.3034L227.435 89.9974C226.597 89.1006 225.903 88.3005 225.351 87.5957L223.845 88.7755ZM226.034 91.2992L230.34 95.9616L231.745 94.664L227.439 90.0016L226.034 91.2992ZM230.342 95.9635C232.344 98.12 233.889 100.348 234.991 102.646L236.715 101.819C235.52 99.3254 233.859 96.9404 231.743 94.6621L230.342 95.9635ZM234.991 102.646C236.071 104.898 236.619 107.428 236.619 110.25H238.532C238.532 107.173 237.932 104.357 236.715 101.819L234.991 102.646ZM236.619 110.25C236.619 113.316 236.289 115.846 235.654 117.863L237.478 118.437C238.189 116.177 238.532 113.44 238.532 110.25H236.619ZM235.654 117.86C235.035 119.809 234.021 121.222 232.639 122.173L233.722 123.749C235.508 122.521 236.75 120.727 237.477 118.439L235.654 117.86ZM232.639 122.173C231.268 123.115 229.324 123.638 226.707 123.638V125.55C229.554 125.55 231.925 124.984 233.722 123.749L232.639 122.173ZM259.462 124H258.506V124.956H259.462V124ZM259.462 103.123H260.418V102.992L260.383 102.866L259.462 103.123ZM250.702 71.7335V70.7772H249.442L249.781 71.9906L250.702 71.7335ZM258.304 71.7335L259.228 71.489L259.04 70.7772H258.304V71.7335ZM263.471 91.2741L262.547 91.5185L262.735 92.2303H263.471V91.2741ZM263.59 91.2741V92.2303H264.347L264.521 91.4933L263.59 91.2741ZM268.193 71.7335V70.7772H267.436L267.262 71.5142L268.193 71.7335ZM275.766 71.7335L276.69 71.9792L277.009 70.7772H275.766V71.7335ZM267.421 103.123L266.497 102.877L266.465 102.998V103.123H267.421ZM267.421 124V124.956H268.377V124H267.421ZM260.418 124V103.123H258.506V124H260.418ZM260.383 102.866L251.623 71.4764L249.781 71.9906L258.541 103.38L260.383 102.866ZM250.702 72.6898H258.304V70.7772H250.702V72.6898ZM257.379 71.978L262.547 91.5185L264.396 91.0296L259.228 71.489L257.379 71.978ZM263.471 92.2303H263.59V90.3178H263.471V92.2303ZM264.521 91.4933L269.124 71.9528L267.262 71.5142L262.659 91.0548L264.521 91.4933ZM268.193 72.6898H275.766V70.7772H268.193V72.6898ZM274.842 71.4878L266.497 102.877L268.345 103.369L276.69 71.9792L274.842 71.4878ZM266.465 103.123V124H268.377V103.123H266.465ZM267.421 123.044H259.462V124.956H267.421V123.044ZM284.526 122.872L283.992 123.664L283.996 123.667L284.526 122.872ZM280.755 117.764L279.855 118.087L280.755 117.764ZM300.087 74.9408L299.309 75.4966L299.314 75.5025L300.087 74.9408ZM302.018 79.4547L301.084 79.6622L301.087 79.6743L302.018 79.4547ZM301.454 117.764L300.551 117.447L300.549 117.454L301.454 117.764ZM294.386 114.111L293.439 113.974L293.438 113.987L294.386 114.111ZM294 79.8705L293.092 80.1729L293.095 80.1816L293.098 80.1902L294 79.8705ZM288.328 79.8111L289.205 80.1913L289.207 80.186L288.328 79.8111ZM287.793 114.17L286.845 114.293L286.846 114.301L286.847 114.31L287.793 114.17ZM288.832 116.843L288.12 117.481L288.126 117.488L288.132 117.495L288.832 116.843ZM291.178 123.638C288.597 123.638 286.58 123.091 285.057 122.076L283.996 123.667C285.917 124.948 288.335 125.55 291.178 125.55V123.638ZM285.061 122.079C283.554 121.062 282.41 119.539 281.655 117.44L279.855 118.087C280.724 120.502 282.093 122.384 283.992 123.664L285.061 122.079ZM281.655 117.44C280.892 115.318 280.494 112.644 280.494 109.389H278.581C278.581 112.786 278.995 115.695 279.855 118.087L281.655 117.44ZM280.494 109.389V85.4832H278.581V109.389H280.494ZM280.494 85.4832C280.494 82.553 280.88 80.098 281.622 78.0941L279.828 77.4298C278.987 79.7023 278.581 82.3947 278.581 85.4832H280.494ZM281.622 78.0941C282.351 76.125 283.49 74.6529 285.027 73.628L283.966 72.0366C282.059 73.3083 280.683 75.1226 279.828 77.4298L281.622 78.0941ZM285.027 73.628C286.546 72.6151 288.601 72.0662 291.268 72.0662V70.1536C288.351 70.1536 285.892 70.7529 283.966 72.0366L285.027 73.628ZM291.268 72.0662C293.272 72.0662 294.901 72.3789 296.189 72.9613L296.977 71.2185C295.375 70.4942 293.46 70.1536 291.268 70.1536V72.0662ZM296.189 72.9613C297.487 73.5476 298.52 74.3915 299.309 75.4966L300.866 74.3849C299.873 72.9956 298.57 71.9388 296.977 71.2185L296.189 72.9613ZM299.314 75.5025C300.114 76.6048 300.711 77.9826 301.084 79.6621L302.951 79.2473C302.533 77.3631 301.843 75.7317 300.861 74.3791L299.314 75.5025ZM301.087 79.6743C301.482 81.3493 301.685 83.2828 301.685 85.4832H303.598C303.598 83.1696 303.385 81.0842 302.949 79.2351L301.087 79.6743ZM301.685 85.4832V109.389H303.598V85.4832H301.685ZM301.685 109.389C301.685 112.646 301.296 115.323 300.551 117.447L302.356 118.08C303.194 115.69 303.598 112.784 303.598 109.389H301.685ZM300.549 117.454C299.832 119.55 298.716 121.069 297.232 122.082L298.31 123.661C300.191 122.378 301.531 120.491 302.358 118.073L300.549 117.454ZM297.232 122.082C295.753 123.091 293.761 123.638 291.178 123.638V125.55C294.02 125.55 296.424 124.949 298.31 123.661L297.232 122.082ZM291.178 118.661C292.366 118.661 293.415 118.296 294.14 117.426L292.671 116.201C292.406 116.519 291.97 116.748 291.178 116.748V118.661ZM294.14 117.426C294.8 116.634 295.164 115.528 295.334 114.235L293.438 113.987C293.29 115.109 293.001 115.805 292.671 116.201L294.14 117.426ZM295.332 114.248C295.519 112.959 295.609 111.365 295.609 109.478H293.697C293.697 111.314 293.609 112.808 293.439 113.974L295.332 114.248ZM295.609 109.478V85.1268H293.697V109.478H295.609ZM295.609 85.1268C295.609 82.8099 295.39 80.9301 294.901 79.5507L293.098 80.1902C293.48 81.2657 293.697 82.8902 293.697 85.1268H295.609ZM294.907 79.5681C294.646 78.7856 294.204 78.1292 293.545 77.6783C292.892 77.2311 292.111 77.0433 291.268 77.0433V78.9558C291.83 78.9558 292.207 79.0798 292.464 79.2563C292.717 79.4289 292.937 79.7081 293.092 80.1729L294.907 79.5681ZM291.268 77.0433C290.413 77.0433 289.622 77.2224 288.947 77.6383C288.266 78.0581 287.771 78.6768 287.448 79.4361L289.207 80.186C289.398 79.7376 289.652 79.4506 289.95 79.2666C290.255 79.0786 290.677 78.9558 291.268 78.9558V77.0433ZM287.45 79.4308C286.857 80.7995 286.599 82.7185 286.599 85.0971H288.512C288.512 82.8033 288.769 81.1984 289.205 80.1913L287.45 79.4308ZM286.599 85.0971V109.478H288.512V85.0971H286.599ZM286.599 109.478C286.599 111.401 286.679 113.009 286.845 114.293L288.741 114.048C288.59 112.876 288.512 111.357 288.512 109.478H286.599ZM286.847 114.31C287.038 115.604 287.427 116.708 288.12 117.481L289.544 116.205C289.208 115.83 288.904 115.152 288.739 114.031L286.847 114.31ZM288.132 117.495C288.9 118.319 289.971 118.661 291.178 118.661V116.748C290.327 116.748 289.834 116.516 289.532 116.191L288.132 117.495ZM314.431 123.079L313.936 123.898L313.943 123.902L314.431 123.079ZM310.689 118.447L309.796 118.787L309.797 118.79L310.689 118.447ZM309.501 71.7335V70.7772H308.545V71.7335H309.501ZM317.46 71.7335H318.416V70.7772H317.46V71.7335ZM317.638 114.289L316.688 114.391L316.688 114.399L316.689 114.408L317.638 114.289ZM318.589 116.873L317.844 117.473L318.589 116.873ZM323.459 116.902L322.726 116.288L322.724 116.29L323.459 116.902ZM324.587 71.7335V70.7772H323.631V71.7335H324.587ZM332.546 71.7335H333.502V70.7772H332.546V71.7335ZM331.358 118.447L330.465 118.106L330.463 118.111L331.358 118.447ZM327.646 123.079L328.138 123.899L328.141 123.898L327.646 123.079ZM321.053 123.638C318.452 123.638 316.429 123.152 314.919 122.257L313.943 123.902C315.838 125.026 318.231 125.55 321.053 125.55V123.638ZM314.926 122.261C313.425 121.353 312.306 119.987 311.582 118.103L309.797 118.79C310.656 121.024 312.032 122.746 313.936 123.898L314.926 122.261ZM311.583 118.106C310.846 116.172 310.458 113.674 310.458 110.577H308.545C308.545 113.816 308.949 116.564 309.796 118.787L311.583 118.106ZM310.458 110.577V71.7335H308.545V110.577H310.458ZM309.501 72.6898H317.46V70.7772H309.501V72.6898ZM316.504 71.7335V110.429H318.416V71.7335H316.504ZM316.504 110.429C316.504 111.918 316.564 113.24 316.688 114.391L318.589 114.187C318.475 113.121 318.416 111.869 318.416 110.429H316.504ZM316.689 114.408C316.841 115.623 317.2 116.675 317.844 117.473L319.333 116.272C318.987 115.843 318.713 115.173 318.587 114.171L316.689 114.408ZM317.844 117.473C318.589 118.397 319.736 118.75 321.024 118.75V116.837C320.054 116.837 319.578 116.576 319.333 116.272L317.844 117.473ZM321.024 118.75C322.302 118.75 323.446 118.412 324.194 117.515L322.724 116.29C322.482 116.581 322.003 116.837 321.024 116.837V118.75ZM324.192 117.517C324.868 116.711 325.229 115.647 325.36 114.421L323.458 114.217C323.352 115.208 323.08 115.866 322.726 116.288L324.192 117.517ZM325.36 114.421C325.483 113.269 325.544 111.937 325.544 110.429H323.631C323.631 111.89 323.573 113.151 323.458 114.217L325.36 114.421ZM325.544 110.429V71.7335H323.631V110.429H325.544ZM324.587 72.6898H332.546V70.7772H324.587V72.6898ZM331.59 71.7335V110.577H333.502V71.7335H331.59ZM331.59 110.577C331.59 113.674 331.202 116.172 330.465 118.106L332.252 118.787C333.099 116.564 333.502 113.816 333.502 110.577H331.59ZM330.463 118.111C329.758 119.991 328.65 121.355 327.151 122.261L328.141 123.898C330.047 122.745 331.414 121.02 332.254 118.782L330.463 118.111ZM327.154 122.259C325.666 123.152 323.656 123.638 321.053 123.638V125.55C323.876 125.55 326.26 125.026 328.138 123.899L327.154 122.259ZM353.661 124H352.704V124.956H353.661V124ZM353.661 78.6232H354.617V77.6669H353.661V78.6232ZM347.543 78.6232H346.587V79.5795H347.543V78.6232ZM347.543 71.7335V70.7772H346.587V71.7335H347.543ZM367.47 71.7335H368.426V70.7772H367.47V71.7335ZM367.47 78.6232V79.5795H368.426V78.6232H367.47ZM361.59 78.6232V77.6669H360.633V78.6232H361.59ZM361.59 124V124.956H362.546V124H361.59ZM354.617 124V78.6232H352.704V124H354.617ZM353.661 77.6669H347.543V79.5795H353.661V77.6669ZM348.499 78.6232V71.7335H346.587V78.6232H348.499ZM347.543 72.6898H367.47V70.7772H347.543V72.6898ZM366.513 71.7335V78.6232H368.426V71.7335H366.513ZM367.47 77.6669H361.59V79.5795H367.47V77.6669ZM360.633 78.6232V124H362.546V78.6232H360.633ZM361.59 123.044H353.661V124.956H361.59V123.044ZM376.29 122.872L375.755 123.664L375.759 123.667L376.29 122.872ZM372.518 117.764L371.618 118.087L372.518 117.764ZM391.851 74.9408L391.073 75.4966L391.077 75.5025L391.851 74.9408ZM393.781 79.4547L392.848 79.6622L392.85 79.6743L393.781 79.4547ZM393.217 117.764L392.314 117.447L392.312 117.454L393.217 117.764ZM386.149 114.111L385.203 113.974L385.201 113.987L386.149 114.111ZM385.763 79.8705L384.856 80.1729L384.859 80.1816L384.862 80.1902L385.763 79.8705ZM380.091 79.8111L380.968 80.1913L380.971 80.186L380.091 79.8111ZM379.556 114.17L378.608 114.293L378.609 114.301L378.61 114.31L379.556 114.17ZM380.596 116.843L379.884 117.481L379.89 117.488L379.896 117.495L380.596 116.843ZM382.942 123.638C380.36 123.638 378.343 123.091 376.82 122.076L375.759 123.667C377.681 124.948 380.098 125.55 382.942 125.55V123.638ZM376.824 122.079C375.317 121.062 374.173 119.539 373.418 117.44L371.618 118.087C372.487 120.502 373.857 122.384 375.755 123.664L376.824 122.079ZM373.418 117.44C372.655 115.318 372.257 112.644 372.257 109.389H370.344C370.344 112.786 370.758 115.695 371.618 118.087L373.418 117.44ZM372.257 109.389V85.4832H370.344V109.389H372.257ZM372.257 85.4832C372.257 82.553 372.643 80.098 373.385 78.0941L371.592 77.4298C370.75 79.7023 370.344 82.3947 370.344 85.4832H372.257ZM373.385 78.0941C374.114 76.125 375.253 74.6529 376.79 73.628L375.729 72.0366C373.822 73.3083 372.446 75.1226 371.592 77.4298L373.385 78.0941ZM376.79 73.628C378.31 72.6151 380.364 72.0662 383.031 72.0662V70.1536C380.115 70.1536 377.655 70.7529 375.729 72.0366L376.79 73.628ZM383.031 72.0662C385.035 72.0662 386.664 72.3789 387.953 72.9613L388.74 71.2185C387.138 70.4942 385.223 70.1536 383.031 70.1536V72.0662ZM387.953 72.9613C389.25 73.5476 390.283 74.3915 391.073 75.4966L392.629 74.3849C391.637 72.9956 390.334 71.9388 388.74 71.2185L387.953 72.9613ZM391.077 75.5025C391.877 76.6048 392.474 77.9826 392.848 79.6621L394.715 79.2473C394.296 77.3631 393.606 75.7317 392.625 74.3791L391.077 75.5025ZM392.85 79.6743C393.246 81.3493 393.448 83.2828 393.448 85.4832H395.361C395.361 83.1696 395.148 81.0842 394.712 79.2351L392.85 79.6743ZM393.448 85.4832V109.389H395.361V85.4832H393.448ZM393.448 109.389C393.448 112.646 393.06 115.323 392.315 117.447L394.119 118.08C394.958 115.69 395.361 112.784 395.361 109.389H393.448ZM392.312 117.454C391.595 119.55 390.48 121.069 388.995 122.082L390.073 123.661C391.955 122.378 393.295 120.491 394.122 118.073L392.312 117.454ZM388.995 122.082C387.516 123.091 385.524 123.638 382.942 123.638V125.55C385.784 125.55 388.187 124.949 390.073 123.661L388.995 122.082ZM382.942 118.661C384.13 118.661 385.178 118.296 385.904 117.426L384.434 116.201C384.17 116.519 383.734 116.748 382.942 116.748V118.661ZM385.904 117.426C386.563 116.634 386.928 115.528 387.097 114.235L385.201 113.987C385.054 115.109 384.765 115.805 384.434 116.201L385.904 117.426ZM387.095 114.248C387.283 112.959 387.373 111.365 387.373 109.478H385.46C385.46 111.314 385.372 112.808 385.203 113.974L387.095 114.248ZM387.373 109.478V85.1268H385.46V109.478H387.373ZM387.373 85.1268C387.373 82.8099 387.154 80.9301 386.664 79.5507L384.862 80.1902C385.243 81.2657 385.46 82.8902 385.46 85.1268H387.373ZM386.67 79.5681C386.409 78.7856 385.967 78.1292 385.308 77.6783C384.655 77.2311 383.874 77.0433 383.031 77.0433V78.9558C383.593 78.9558 383.97 79.0798 384.228 79.2563C384.48 79.4289 384.701 79.7081 384.856 80.1729L386.67 79.5681ZM383.031 77.0433C382.176 77.0433 381.385 77.2224 380.71 77.6383C380.029 78.0581 379.535 78.6768 379.211 79.4361L380.971 80.186C381.162 79.7376 381.415 79.4506 381.714 79.2666C382.019 79.0786 382.44 78.9558 383.031 78.9558V77.0433ZM379.213 79.4308C378.62 80.7995 378.362 82.7185 378.362 85.0971H380.275C380.275 82.8033 380.532 81.1984 380.968 80.1913L379.213 79.4308ZM378.362 85.0971V109.478H380.275V85.0971H378.362ZM378.362 109.478C378.362 111.401 378.442 113.009 378.608 114.293L380.505 114.048C380.354 112.876 380.275 111.357 380.275 109.478H378.362ZM378.61 114.31C378.801 115.604 379.19 116.708 379.884 117.481L381.308 116.205C380.972 115.83 380.668 115.152 380.502 114.031L378.61 114.31ZM379.896 117.495C380.663 118.319 381.734 118.661 382.942 118.661V116.748C382.091 116.748 381.597 116.516 381.296 116.191L379.896 117.495Z" fill="#E03932" mask="url(#path-1-outside-1_1194_4098)"/>
</g>
<defs>
<filter id="filter0_d_1194_4098" x="0.366089" y="0.139587" width="398.039" height="132.454" filterUnits="userSpaceOnUse" color-interpolation-filters="sRGB">
<feFlood flood-opacity="0" result="BackgroundImageFix"/>
<feColorMatrix in="SourceAlpha" type="matrix" values="0 0 0 0 0 0 0 0 0 0 0 0 0 0 0 0 0 0 127 0" result="hardAlpha"/>
<feOffset dy="4"/>
<feGaussianBlur stdDeviation="2"/>
<feComposite in2="hardAlpha" operator="out"/>
<feColorMatrix type="matrix" values="0 0 0 0 0 0 0 0 0 0 0 0 0 0 0 0 0 0 0.25 0"/>
<feBlend mode="normal" in2="BackgroundImageFix" result="effect1_dropShadow_1194_4098"/>
<feBlend mode="normal" in="SourceGraphic" in2="effect1_dropShadow_1194_4098" result="shape"/>
</filter>
</defs>
</svg>
